
        <svg xmlns="http://www.w3.org/2000/svg" xmlns:xlink="http://www.w3.org/1999/xlink" version="1.1" width="3300" 
        height="769.5883583339355" viewBox="0 0 3300 769.5883583339355">
			
			<g transform="scale(15.000000000000002) translate(10, 10)">
				<defs id="SvgjsDefs2628"><linearGradient id="SvgjsLinearGradient2633"><stop id="SvgjsStop2634" stop-color="#006838" offset="0"></stop><stop id="SvgjsStop2635" stop-color="#96cf24" offset="1"></stop></linearGradient></defs><g id="SvgjsG2629" featureKey="symbolFeature-0" transform="matrix(0.45636333724742983,0,0,0.45636333724742983,-0.3410260543470408,-4.563633372474298)" fill="url(#SvgjsLinearGradient2633)"><path xmlns="http://www.w3.org/2000/svg" d="M80.651,40.001c0,0-8.315-4.926-25.442-4.626c0,0-14.792,1.156-22.501,11.95c0,0-3.708,4.734-11.708,7.249v7.43  c2,0.15,4.383,1.279,4.383,2.668c0,1.49-2.451,2.698-5.325,2.698c-2.874,0-5.48-1.208-5.48-2.698c0-1.017,1.422-1.892,2.422-2.353  v-6.966c0,0.175-1.539,0.335-2.482,0.452c0,0-13.384,0.386-13.77,10.022c0,0-0.332,8.48,13.16,11.95c0,0,23.542,3.084,41.659-2.698  c0,0,28.05-6.869,32.009-18.228C88.787,53.052,90,44.474,80.651,40.001z"></path><polyline xmlns="http://www.w3.org/2000/svg" points="22,10 22,64 19,64 19,10 "></polyline><path xmlns="http://www.w3.org/2000/svg" d="M22,13v10.811c0,0,6.681,2.099,13.521-2.698c0,0,2.469-3.084,9.145-3.277c0,0-3.37-4.144-14.548-2.216  c0,0-3.117,1.638-8.117-2.602"></path></g><g id="SvgjsG2630" featureKey="nameFeature-0" transform="matrix(0.525604474017436,0,0,0.525604474017436,59.474395525982565,2.3631820425880417)" fill="#333333"><path d="M11.56 36.48 c0 1 0.76 1.4 3.04 1.48 l0 2.04 c-4.48 -0.12 -9.08 -0.12 -13.6 0 l0 -2.04 c2.32 -0.08 3.08 -0.48 3.08 -1.48 l0 -17.84 c0 -1 -0.76 -1.36 -3.08 -1.48 l0 -2 c4.52 0.12 9.12 0.12 13.6 0 l0 2 c-2.28 0.12 -3.04 0.48 -3.04 1.48 l0 17.84 z M39.08 36.48 c0 1 1.08 1.32 2.68 1.48 l0 2.04 c-4.2 -0.12 -8.28 -0.12 -12.48 0 l0 -2.04 c1.52 -0.04 2.64 -0.48 2.64 -1.48 l0 -9.44 c0 -2.48 0.12 -4.24 -1.68 -4.24 c-2.08 0 -3.96 3.48 -4.32 4.6 l0 9.08 c0 1 1.08 1.44 2.68 1.48 l0 2.04 c-4.16 -0.12 -8.28 -0.12 -12.44 0 l0 -2.04 c1.48 -0.16 2.64 -0.48 2.64 -1.48 l0 -10.12 c0 -1.64 -1.12 -1.88 -2.6 -1.6 l0 -2.04 c4.88 -1.08 7.04 -3.4 8.32 -3.4 c1.12 0 1.6 0.76 1.4 2.08 l-0.36 3 c1.08 -1.64 3.12 -4.8 7.08 -4.8 c2.92 0 6.44 1.28 6.44 7.04 l0 9.84 z M49.04 18.6 c-2.04 0 -3.68 -1.68 -3.68 -3.68 c0 -2.08 1.64 -3.68 3.68 -3.68 c2.08 0 3.6 1.6 3.6 3.68 c0 2 -1.52 3.68 -3.6 3.68 z M52.879999999999995 36.48 c0 1 1.08 1.32 2.68 1.48 l0 2.04 c-4.08 -0.12 -8.28 -0.12 -12.36 0 l0 -2.04 c1.4 -0.16 2.56 -0.48 2.56 -1.48 l0 -10.24 c0 -1.6 -1.12 -1.88 -2.6 -1.72 l0 -2 c5.24 -0.96 7.32 -3.08 8.76 -3.08 c0.76 0 1.2 0.52 1.2 1.24 c0 2.24 -0.24 3.88 -0.24 6.44 l0 9.36 z M75.32 35.24 c0.92 0 1.32 0.84 0.84 1.6 c-1.68 2.24 -4.24 3.56 -7.52 3.56 c-5.2 0 -11.08 -3.04 -11.08 -10.6 c0 -7.04 5.88 -10.16 10.64 -10.16 c4.72 0 8.68 2.2 8.72 5.72 c0 1.32 -0.72 2.56 -3.12 2.56 c-2.16 0 -3.04 -1.24 -2.92 -2.64 c0.16 -1.72 0.08 -3.56 -2.04 -3.56 c-2.84 0 -3.6 3.48 -3.6 8.2 c0 3.52 0.72 8.44 4.12 8.44 c2.68 0 3.6 -1.2 4 -2.48 c0.16 -0.44 0.48 -0.64 0.84 -0.64 l1.12 0 z M84.80000000000001 18.6 c-2.04 0 -3.68 -1.68 -3.68 -3.68 c0 -2.08 1.64 -3.68 3.68 -3.68 c2.08 0 3.6 1.6 3.6 3.68 c0 2 -1.52 3.68 -3.6 3.68 z M88.64 36.48 c0 1 1.08 1.32 2.68 1.48 l0 2.04 c-4.08 -0.12 -8.28 -0.12 -12.36 0 l0 -2.04 c1.4 -0.16 2.56 -0.48 2.56 -1.48 l0 -10.24 c0 -1.6 -1.12 -1.88 -2.6 -1.72 l0 -2 c5.24 -0.96 7.32 -3.08 8.76 -3.08 c0.76 0 1.2 0.52 1.2 1.24 c0 2.24 -0.24 3.88 -0.24 6.44 l0 9.36 z M112.24000000000001 33.8 c0 1.56 1.12 1.96 2.68 1.56 l0 2.24 c-4.64 1.2 -7.24 2.96 -8.24 2.96 c-1.2 0 -1.72 -0.68 -1.6 -2.04 l0.32 -2.84 c-0.76 2.36 -2.16 4.88 -6.12 4.88 c-3.4 0 -6.16 -1.72 -6.16 -5.16 c0 -4.2 3.4 -6.4 11.96 -8.12 l-0.08 -3.72 c-0.08 -1.92 -0.84 -2.2 -1.52 -2.2 c-4.56 0 -1 6.36 -6.52 6.36 c-1.96 0 -2.84 -1.04 -2.84 -2.6 c0 -3.08 4.28 -5.52 9.88 -5.52 c4.12 0 8.24 0.4 8.24 5.04 l0 9.16 z M102.12 37.44 c2 0 2.84 -3.28 2.96 -4.84 l0 -3.64 c-4.44 0.84 -4.88 4.28 -4.88 5.76 c0 1.56 0.72 2.72 1.92 2.72 z M132.24 19.56 c1.88 0 3.48 1.28 3.48 3.28 c0 2.2 -1.96 3 -3.04 3 c-1.76 0 -2.72 -0.92 -3.64 -0.92 c-2.52 0 -2.72 2.76 -2.92 4.08 l0 7.48 c0 1 1 1.32 2.72 1.48 l0 2.04 c-4.12 -0.08 -8.32 -0.08 -12.44 0 l0 -2.04 c1.44 -0.16 2.52 -0.48 2.52 -1.48 l0 -10.08 c0 -1.64 -1.12 -1.88 -2.6 -1.6 l0 -2.04 c4.88 -1.08 7.08 -3.44 8.36 -3.44 c1.16 0 1.6 0.76 1.44 2.08 l-0.6 4.36 c1.48 -4.56 3.68 -6.2 6.72 -6.2 z M162.72000000000003 34.24 c0 3.76 -3.84 6.4 -7.4 6.4 c-2.96 0 -5 -1.56 -5.72 -1.56 c-0.36 0 -0.56 0.16 -0.56 0.88 l-2.12 0 l-0.52 -5.8 l1.24 0 c0.76 0 1.08 0.2 1.4 0.92 c0.84 2.04 3.12 3.64 5.32 3.64 c1.52 0 2.48 -0.92 2.48 -2.12 c0 -1.64 -1.44 -2.44 -3.24 -3.16 c-2.4 -1 -7.48 -2.84 -7.48 -7.48 c0 -4.04 3.36 -6.32 7.12 -6.32 c3 0 3.88 1.12 4.76 1.12 c0.68 0 0.92 -0.36 0.96 -0.8 l2.12 0 l0.36 5.92 l-1.08 0 c-0.72 0 -1.36 -0.16 -1.64 -0.96 c-0.88 -2.52 -2.44 -3.4 -4.24 -3.4 c-1.28 0 -2.6 0.76 -2.6 2.24 c0 1.56 1.52 2.36 3.32 3 c2.28 0.92 7.52 2.92 7.52 7.48 z M182.28000000000003 35.24 c0.76 0 0.84 0.76 0.28 1.64 c-1.64 2.4 -3.8 3.52 -7.08 3.52 c-5.84 0 -10.76 -3.64 -10.76 -10.6 c0 -6.84 5.24 -10.16 10.04 -10.16 c5.8 0 9.12 4.12 9.12 7.96 c0 2.12 -0.88 3.52 -3.12 3.52 l-9.08 0 c0.16 3.04 0.52 7.24 4.68 7.24 c2.24 0 3.48 -0.88 4.52 -2.52 c0.28 -0.48 0.4 -0.6 0.96 -0.6 l0.44 0 z M177.24000000000004 28.6 c0 -4.28 -0.56 -6.88 -2.56 -6.88 c-2.16 0 -2.96 2.56 -3 6.88 l5.56 0 z M202.88000000000005 34.24 c0 3.76 -3.84 6.4 -7.4 6.4 c-2.96 0 -5 -1.56 -5.72 -1.56 c-0.36 0 -0.56 0.16 -0.56 0.88 l-2.12 0 l-0.52 -5.8 l1.24 0 c0.76 0 1.08 0.2 1.4 0.92 c0.84 2.04 3.12 3.64 5.32 3.64 c1.52 0 2.48 -0.92 2.48 -2.12 c0 -1.64 -1.44 -2.44 -3.24 -3.16 c-2.4 -1 -7.48 -2.84 -7.48 -7.48 c0 -4.04 3.36 -6.32 7.12 -6.32 c3 0 3.88 1.12 4.76 1.12 c0.68 0 0.92 -0.36 0.96 -0.8 l2.12 0 l0.36 5.92 l-1.08 0 c-0.72 0 -1.36 -0.16 -1.64 -0.96 c-0.88 -2.52 -2.44 -3.4 -4.24 -3.4 c-1.28 0 -2.6 0.76 -2.6 2.24 c0 1.56 1.52 2.36 3.32 3 c2.28 0.92 7.52 2.92 7.52 7.48 z M210.56000000000006 18.6 c-2.04 0 -3.68 -1.68 -3.68 -3.68 c0 -2.08 1.64 -3.68 3.68 -3.68 c2.08 0 3.6 1.6 3.6 3.68 c0 2 -1.52 3.68 -3.6 3.68 z M214.40000000000006 36.48 c0 1 1.08 1.32 2.68 1.48 l0 2.04 c-4.08 -0.12 -8.28 -0.12 -12.36 0 l0 -2.04 c1.4 -0.16 2.56 -0.48 2.56 -1.48 l0 -10.24 c0 -1.6 -1.12 -1.88 -2.6 -1.72 l0 -2 c5.24 -0.96 7.32 -3.08 8.76 -3.08 c0.76 0 1.2 0.52 1.2 1.24 c0 2.24 -0.24 3.88 -0.24 6.44 l0 9.36 z M224.92000000000004 16.36 l0.8 1.2 l6.56 -2.24 c1.92 -0.68 2.56 -2.52 1.72 -3.72 c-0.96 -1.2 -2.32 -1.16 -3.76 0.08 z M229.56000000000006 19.64 c4.48 0 10.44 2.68 10.44 10.16 c0 7.52 -5.96 10.6 -10.48 10.6 c-4.48 0 -10.44 -3.08 -10.44 -10.28 c0 -7.8 5.96 -10.48 10.48 -10.48 z M232.44000000000005 31.64 c0 -6.2 -1.28 -9.92 -3.36 -9.92 c-1.76 0 -2.4 2.8 -2.4 6.72 c0 6.04 1.28 9.92 3.36 9.92 c1.88 0 2.4 -2.84 2.4 -6.72 z M264.68000000000006 36.48 c0 1 1.08 1.32 2.68 1.48 l0 2.04 c-4.2 -0.12 -8.28 -0.12 -12.48 0 l0 -2.04 c1.52 -0.04 2.64 -0.48 2.64 -1.48 l0 -9.44 c0 -2.48 0.12 -4.24 -1.68 -4.24 c-2.08 0 -3.96 3.48 -4.32 4.6 l0 9.08 c0 1 1.08 1.44 2.68 1.48 l0 2.04 c-4.16 -0.12 -8.28 -0.12 -12.44 0 l0 -2.04 c1.48 -0.16 2.64 -0.48 2.64 -1.48 l0 -10.12 c0 -1.64 -1.12 -1.88 -2.6 -1.6 l0 -2.04 c4.88 -1.08 7.04 -3.4 8.32 -3.4 c1.12 0 1.6 0.76 1.4 2.08 l-0.36 3 c1.08 -1.64 3.12 -4.8 7.08 -4.8 c2.92 0 6.44 1.28 6.44 7.04 l0 9.84 z"></path></g>
			</g>
		</svg>
	