
        <svg xmlns="http://www.w3.org/2000/svg" xmlns:xlink="http://www.w3.org/1999/xlink" version="1.1" width="3222.222222222222" height="1091.8302932109914" viewBox="0 0 3222.222222222222 1091.8302932109914">
			
			<g transform="scale(11.11111111111111) translate(10, 10)">
				<defs id="SvgjsDefs4526"/><g id="SvgjsG4527" featureKey="symbolFeature-0" transform="matrix(1.1409083431185745,0,0,1.1409083431185745,-0.852565135867602,-11.409083431185746)" fill="#000"><path xmlns="http://www.w3.org/2000/svg" d="M80.651,40.001c0,0-8.315-4.926-25.442-4.626c0,0-14.792,1.156-22.501,11.95c0,0-3.708,4.734-11.708,7.249v7.43  c2,0.15,4.383,1.279,4.383,2.668c0,1.49-2.451,2.698-5.325,2.698c-2.874,0-5.48-1.208-5.48-2.698c0-1.017,1.422-1.892,2.422-2.353  v-6.966c0,0.175-1.539,0.335-2.482,0.452c0,0-13.384,0.386-13.77,10.022c0,0-0.332,8.48,13.16,11.95c0,0,23.542,3.084,41.659-2.698  c0,0,28.05-6.869,32.009-18.228C88.787,53.052,90,44.474,80.651,40.001z"/><polyline xmlns="http://www.w3.org/2000/svg" points="22,10 22,64 19,64 19,10 "/><path xmlns="http://www.w3.org/2000/svg" d="M22,13v10.811c0,0,6.681,2.099,13.521-2.698c0,0,2.469-3.084,9.145-3.277c0,0-3.37-4.144-14.548-2.216  c0,0-3.117,1.638-8.117-2.602"/></g><g id="SvgjsG4528" featureKey="nameFeature-0" transform="matrix(1.952108369974419,0,0,1.952108369974419,117.6574684666902,-20.128060644356214)" fill="#000"><path d="M20.76 19.68 c1.36 0 2.2 0.76 2.2 2.52 c0 0.92 0.12 2.56 -1.28 2.56 c-0.52 0 -0.96 -0.24 -1.8 -0.24 c-0.2 0 -0.16 0.16 -0.12 0.32 c0.08 0.36 0.48 0.96 0.48 2.2 c0 4.76 -4.12 6.88 -9.36 6.88 c-2.48 0 -3.76 -0.56 -4.28 -0.56 c-0.24 0 -0.48 0.16 -0.48 0.6 c0 0.6 0.4 1.04 2.16 1.28 l4 0.56 c6.08 0.84 9.24 2.04 9.24 6.16 c0 3.88 -4.8 6.72 -10.88 6.72 c-5.28 0 -9.44 -1.72 -9.44 -4.96 c0 -2.16 1.6 -3.36 3.72 -3.36 c1.24 0 2.76 0.52 2.76 2.04 c0 1.44 -0.4 1.44 -0.4 2.48 c0 0.8 0.84 1.88 3.52 1.88 c2.04 0 4.88 -0.8 4.88 -3.68 c0 -0.8 -0.44 -1.64 -2.24 -2 l-8.76 -1.72 c-2.28 -0.4 -3.48 -1.92 -3.48 -3.8 c0 -1.56 1.04 -3.12 3.4 -3.4 c-1.72 -0.76 -3.08 -2.84 -3.08 -5.12 c0 -4.76 4.16 -7.4 9.32 -7.4 c3.36 0 4.96 0.96 6.68 2.36 c0.52 -1.44 1.56 -2.32 3.24 -2.32 z M10.84 31.8 c2.04 0 2.4 -2.44 2.4 -4.84 c0 -2.16 -0.28 -5.24 -2.4 -5.24 c-2.16 0 -2.4 3.08 -2.4 5.24 c0 2.4 0.32 4.84 2.4 4.84 z M34.44 19.64 c4.48 0 10.44 2.68 10.44 10.16 c0 7.52 -5.96 10.6 -10.48 10.6 c-4.48 0 -10.44 -3.08 -10.44 -10.28 c0 -7.8 5.96 -10.48 10.48 -10.48 z M37.32 31.64 c0 -6.2 -1.28 -9.92 -3.36 -9.92 c-1.76 0 -2.4 2.8 -2.4 6.72 c0 6.04 1.28 9.92 3.36 9.92 c1.88 0 2.4 -2.84 2.4 -6.72 z M55.480000000000004 34.4 c0 1.56 1.12 1.84 2.68 1.72 l0 2 c-4.52 1 -7.2 2.44 -8.2 2.44 c-1.12 0 -1.48 -0.48 -1.48 -1.72 l0 -19.44 c0 -1.64 -1.12 -1.92 -2.6 -1.64 l0 -2 c4.88 -1.12 6.88 -3.4 8.24 -3.4 c1.08 0 1.36 0.6 1.36 1.76 l0 20.28 z M70.96000000000001 12.719999999999999 c3.36 0 7.08 1.44 7.08 4.48 c0 1.44 -0.76 2.32 -2.16 2.32 c-3.08 0 -2.04 -4.28 -4.16 -4.28 c-1.72 0 -2.48 1.08 -2.48 4.72 l3.08 0 c0.52 0 0.68 0.24 0.68 0.76 l0 0.68 c0 0.52 -0.16 0.76 -0.68 0.76 l-3.08 0 l0 14.32 c0 1 1.08 1.32 2.68 1.48 l0 2.04 c-4.08 -0.12 -8.28 -0.12 -12.36 0 l0 -2.04 c1.4 -0.16 2.56 -0.48 2.56 -1.48 l0 -14.32 l-1.68 0 c-0.52 0 -0.68 -0.24 -0.68 -0.76 l0 -0.68 c0 -0.52 0.16 -0.76 0.68 -0.76 l1.68 0 c0.16 -5.64 4.8 -7.24 8.84 -7.24 z"/></g>
			</g>
		</svg>
	