
        <svg xmlns="http://www.w3.org/2000/svg" xmlns:xlink="http://www.w3.org/1999/xlink" version="1.1" width="3300" 
        height="769.5883583339355" viewBox="0 0 3300 769.5883583339355">
			
			<g transform="scale(15) translate(10, 10)">
				<defs id="SvgjsDefs1462"><linearGradient id="SvgjsLinearGradient1467"><stop id="SvgjsStop1468" stop-color="#006838" offset="0"></stop><stop id="SvgjsStop1469" stop-color="#96cf24" offset="1"></stop></linearGradient></defs><g id="SvgjsG1463" featureKey="symbolFeature-0" transform="matrix(0.45636333724742983,0,0,0.45636333724742983,-0.3410260543470408,-4.563633372474298)" fill="url(#SvgjsLinearGradient1467)"><path xmlns="http://www.w3.org/2000/svg" d="M80.651,40.001c0,0-8.315-4.926-25.442-4.626c0,0-14.792,1.156-22.501,11.95c0,0-3.708,4.734-11.708,7.249v7.43  c2,0.15,4.383,1.279,4.383,2.668c0,1.49-2.451,2.698-5.325,2.698c-2.874,0-5.48-1.208-5.48-2.698c0-1.017,1.422-1.892,2.422-2.353  v-6.966c0,0.175-1.539,0.335-2.482,0.452c0,0-13.384,0.386-13.77,10.022c0,0-0.332,8.48,13.16,11.95c0,0,23.542,3.084,41.659-2.698  c0,0,28.05-6.869,32.009-18.228C88.787,53.052,90,44.474,80.651,40.001z"></path><polyline xmlns="http://www.w3.org/2000/svg" points="22,10 22,64 19,64 19,10 "></polyline><path xmlns="http://www.w3.org/2000/svg" d="M22,13v10.811c0,0,6.681,2.099,13.521-2.698c0,0,2.469-3.084,9.145-3.277c0,0-3.37-4.144-14.548-2.216  c0,0-3.117,1.638-8.117-2.602"></path></g><g id="SvgjsG1464" featureKey="nameFeature-0" transform="matrix(0.5560851726035394,0,0,0.5560851726035394,59.22148150080885,-0.07435590011068882)" fill="#333333"><path d="M23 33.2 l2.64 0 c-1 3.68 -4.12 7.52 -10.72 7.52 c-8.12 0 -13.52 -4.76 -13.52 -13.2 c0 -7.52 5.76 -13 12.72 -13 c3.52 0 4.92 1.08 7.04 1.08 c0.6 0 1.04 0 2.6 -0.4 c0.04 2.36 0.6 4.84 1.56 7.12 l-4 0 c-1.64 -3.16 -4 -5.52 -6.84 -5.52 c-4 0 -5.2 3.92 -5.2 9.6 c0 6.24 2 11.96 7.12 11.96 c2.08 0 5.12 -1 6.6 -5.16 z M43.16 19.56 c1.88 0 3.48 1.28 3.48 3.28 c0 2.2 -1.96 3 -3.04 3 c-1.76 0 -2.72 -0.92 -3.64 -0.92 c-2.52 0 -2.72 2.76 -2.92 4.08 l0 7.48 c0 1 1 1.32 2.72 1.48 l0 2.04 c-4.12 -0.08 -8.32 -0.08 -12.44 0 l0 -2.04 c1.44 -0.16 2.52 -0.48 2.52 -1.48 l0 -10.08 c0 -1.64 -1.12 -1.88 -2.6 -1.6 l0 -2.04 c4.88 -1.08 7.08 -3.44 8.36 -3.44 c1.16 0 1.6 0.76 1.44 2.08 l-0.6 4.36 c1.48 -4.56 3.68 -6.2 6.72 -6.2 z M65.00000000000001 35.24 c0.76 0 0.84 0.76 0.28 1.64 c-1.64 2.4 -3.8 3.52 -7.08 3.52 c-5.84 0 -10.76 -3.64 -10.76 -10.6 c0 -6.84 5.24 -10.16 10.04 -10.16 c5.8 0 9.12 4.12 9.12 7.96 c0 2.12 -0.88 3.52 -3.12 3.52 l-9.08 0 c0.16 3.04 0.52 7.24 4.68 7.24 c2.24 0 3.48 -0.88 4.52 -2.52 c0.28 -0.48 0.4 -0.6 0.96 -0.6 l0.44 0 z M59.96000000000001 28.6 c0 -4.28 -0.56 -6.88 -2.56 -6.88 c-2.16 0 -2.96 2.56 -3 6.88 l5.56 0 z M87.92000000000002 33.8 c0 1.56 1.12 1.96 2.68 1.56 l0 2.24 c-4.64 1.2 -7.24 2.96 -8.24 2.96 c-1.2 0 -1.72 -0.68 -1.6 -2.04 l0.32 -2.84 c-0.76 2.36 -2.16 4.88 -6.12 4.88 c-3.4 0 -6.16 -1.72 -6.16 -5.16 c0 -4.2 3.4 -6.4 11.96 -8.12 l-0.08 -3.72 c-0.08 -1.92 -0.84 -2.2 -1.52 -2.2 c-4.56 0 -1 6.36 -6.52 6.36 c-1.96 0 -2.84 -1.04 -2.84 -2.6 c0 -3.08 4.28 -5.52 9.88 -5.52 c4.12 0 8.24 0.4 8.24 5.04 l0 9.16 z M77.80000000000001 37.44 c2 0 2.84 -3.28 2.96 -4.84 l0 -3.64 c-4.44 0.84 -4.88 4.28 -4.88 5.76 c0 1.56 0.72 2.72 1.92 2.72 z M107.92000000000002 19.56 c1.88 0 3.48 1.28 3.48 3.28 c0 2.2 -1.96 3 -3.04 3 c-1.76 0 -2.72 -0.92 -3.64 -0.92 c-2.52 0 -2.72 2.76 -2.92 4.08 l0 7.48 c0 1 1 1.32 2.72 1.48 l0 2.04 c-4.12 -0.08 -8.32 -0.08 -12.44 0 l0 -2.04 c1.44 -0.16 2.52 -0.48 2.52 -1.48 l0 -10.08 c0 -1.64 -1.12 -1.88 -2.6 -1.6 l0 -2.04 c4.88 -1.08 7.08 -3.44 8.36 -3.44 c1.16 0 1.6 0.76 1.44 2.08 l-0.6 4.36 c1.48 -4.56 3.68 -6.2 6.72 -6.2 z M139.56 35.24 c0.92 0 1.32 0.84 0.84 1.6 c-1.68 2.24 -4.24 3.56 -7.52 3.56 c-5.2 0 -11.08 -3.04 -11.08 -10.6 c0 -7.04 5.88 -10.16 10.64 -10.16 c4.72 0 8.68 2.2 8.72 5.72 c0 1.32 -0.72 2.56 -3.12 2.56 c-2.16 0 -3.04 -1.24 -2.92 -2.64 c0.16 -1.72 0.08 -3.56 -2.04 -3.56 c-2.84 0 -3.6 3.48 -3.6 8.2 c0 3.52 0.72 8.44 4.12 8.44 c2.68 0 3.6 -1.2 4 -2.48 c0.16 -0.44 0.48 -0.64 0.84 -0.64 l1.12 0 z M165.56 34.08 c0 1.6 1.12 1.96 2.68 1.6 l0 1.92 c-4.64 1.2 -7.4 2.96 -8.2 2.96 c-1.24 0 -1.84 -0.84 -1.68 -2.24 l0.48 -2.56 c-0.96 1.72 -3 4.96 -7 4.96 c-2.96 0 -6.56 -1.44 -6.56 -7.24 l0 -10.04 c0 -0.8 -0.32 -1.2 -1.12 -1.16 l-1.2 0.04 l0 -2 l8.16 -0.52 c0.64 -0.04 1.32 0.36 1.32 1.24 l0 11.6 c0 2.56 -0.32 4.96 1.72 4.96 s3.84 -3.92 4.28 -5.04 l0 -9.12 c0 -0.8 -0.4 -1.2 -1.2 -1.16 l-1.12 0.04 l0 -2 l8.12 -0.52 c0.56 -0.04 1.32 0.36 1.32 1.24 l0 13.04 z M187 35.24 c0.76 0 0.84 0.76 0.28 1.64 c-1.64 2.4 -3.8 3.52 -7.08 3.52 c-5.84 0 -10.76 -3.64 -10.76 -10.6 c0 -6.84 5.24 -10.16 10.04 -10.16 c5.8 0 9.12 4.12 9.12 7.96 c0 2.12 -0.88 3.52 -3.12 3.52 l-9.08 0 c0.16 3.04 0.52 7.24 4.68 7.24 c2.24 0 3.48 -0.88 4.52 -2.52 c0.28 -0.48 0.4 -0.6 0.96 -0.6 l0.44 0 z M181.96 28.6 c0 -4.28 -0.56 -6.88 -2.56 -6.88 c-2.16 0 -2.96 2.56 -3 6.88 l5.56 0 z M213.28 36.48 c0 1 1.08 1.32 2.68 1.48 l0 2.04 c-4.2 -0.12 -8.28 -0.12 -12.48 0 l0 -2.04 c1.52 -0.04 2.64 -0.48 2.64 -1.48 l0 -9.44 c0 -2.48 0.12 -4.24 -1.68 -4.24 c-2.08 0 -3.96 3.48 -4.32 4.6 l0 9.08 c0 1 1.08 1.44 2.68 1.48 l0 2.04 c-4.16 -0.12 -8.28 -0.12 -12.44 0 l0 -2.04 c1.48 -0.16 2.64 -0.48 2.64 -1.48 l0 -10.12 c0 -1.64 -1.12 -1.88 -2.6 -1.6 l0 -2.04 c4.88 -1.08 7.04 -3.4 8.32 -3.4 c1.12 0 1.6 0.76 1.4 2.08 l-0.36 3 c1.08 -1.64 3.12 -4.8 7.08 -4.8 c2.92 0 6.44 1.28 6.44 7.04 l0 9.84 z M229.64 38.96 c-1.12 0.84 -2.72 1.32 -4.6 1.32 c-4.2 0 -6.64 -2.32 -6.64 -6.96 l0 -11.16 l-1.4 0 c-0.52 0 -0.68 -0.24 -0.68 -0.76 l0 -0.68 c0 -0.52 0.16 -0.76 0.68 -0.76 c3.44 0 4.8 -2.44 5.12 -5.44 l3.44 0 l0 5.44 l3.32 0 c0.52 0 0.68 0.24 0.68 0.76 l0 0.68 c0 0.52 -0.16 0.76 -0.68 0.76 l-3.32 0 l0 11.92 c0 2.08 0.12 3.6 1.76 3.6 c0.64 0 1.64 -0.32 2.32 -0.92 l0 2.2 z M250.48 33.8 c0 1.56 1.12 1.96 2.68 1.56 l0 2.24 c-4.64 1.2 -7.24 2.96 -8.24 2.96 c-1.2 0 -1.72 -0.68 -1.6 -2.04 l0.32 -2.84 c-0.76 2.36 -2.16 4.88 -6.12 4.88 c-3.4 0 -6.16 -1.72 -6.16 -5.16 c0 -4.2 3.4 -6.4 11.96 -8.12 l-0.08 -3.72 c-0.08 -1.92 -0.84 -2.2 -1.52 -2.2 c-4.56 0 -1 6.36 -6.52 6.36 c-1.96 0 -2.84 -1.04 -2.84 -2.6 c0 -3.08 4.28 -5.52 9.88 -5.52 c4.12 0 8.24 0.4 8.24 5.04 l0 9.16 z M240.35999999999999 37.44 c2 0 2.84 -3.28 2.96 -4.84 l0 -3.64 c-4.44 0.84 -4.88 4.28 -4.88 5.76 c0 1.56 0.72 2.72 1.92 2.72 z"></path></g>
			</g>
		</svg>
	